<svg width="21" height="22" viewBox="0 0 21 22" fill="none" xmlns="http://www.w3.org/2000/svg">
<path d="M0.5 4L7.5 1L13.5 4L19.803 1.299C19.8791 1.26638 19.9621 1.25317 20.0445 1.26054C20.127 1.26792 20.2063 1.29565 20.2754 1.34124C20.3445 1.38684 20.4012 1.44888 20.4404 1.5218C20.4796 1.59471 20.5001 1.67622 20.5 1.759V18L13.5 21L7.5 18L1.197 20.701C1.12091 20.7336 1.03792 20.7468 0.955466 20.7395C0.873012 20.7321 0.793679 20.7044 0.724587 20.6588C0.655495 20.6132 0.598806 20.5511 0.559607 20.4782C0.520408 20.4053 0.499927 20.3238 0.5 20.241V4ZM14.5 18.395L18.5 16.681V4.033L14.5 5.747V18.395ZM12.5 18.264V5.736L8.5 3.736V16.264L12.5 18.264ZM6.5 16.253V3.605L2.5 5.319V17.967L6.5 16.253Z" fill="#461C07"/>
<path d="M1.9999 5L6.4999 3L13.5 4.5L18.9999 4V17L14 19.5L8 17L1.7395 18.5L1.9999 5Z" fill="#461C07"/>
</svg>
