<svg width="21" height="21" viewBox="0 0 21 21" fill="none" xmlns="http://www.w3.org/2000/svg">
<path d="M0.5 3.5L7.5 0.5L13.5 3.5L19.803 0.799C19.8791 0.766384 19.9621 0.753169 20.0445 0.760542C20.127 0.767916 20.2063 0.795646 20.2754 0.841245C20.3445 0.886844 20.4012 0.948884 20.4404 1.0218C20.4796 1.09471 20.5001 1.17622 20.5 1.259V17.5L13.5 20.5L7.5 17.5L1.197 20.201C1.12091 20.2336 1.03792 20.2468 0.955466 20.2395C0.873012 20.2321 0.793679 20.2044 0.724587 20.1588C0.655495 20.1132 0.598806 20.0511 0.559607 19.9782C0.520408 19.9053 0.499927 19.8238 0.5 19.741V3.5ZM14.5 17.895L18.5 16.181V3.533L14.5 5.247V17.895ZM12.5 17.764V5.236L8.5 3.236V15.764L12.5 17.764ZM6.5 15.753V3.105L2.5 4.819V17.467L6.5 15.753Z" fill="#461C07"/>
</svg>
