<svg width="21" height="20" viewBox="0 0 21 20" fill="none" xmlns="http://www.w3.org/2000/svg">
<path d="M20.1488 18.3751C18.7209 15.9067 16.5206 14.1367 13.9528 13.2976C15.223 12.5415 16.2098 11.3893 16.7618 10.018C17.3137 8.64678 17.4003 7.13224 17.0082 5.70701C16.6161 4.28178 15.767 3.02467 14.5912 2.12873C13.4155 1.23279 11.9782 0.747559 10.5 0.747559C9.02182 0.747559 7.58451 1.23279 6.40878 2.12873C5.23306 3.02467 4.38394 4.28178 3.99183 5.70701C3.59971 7.13224 3.68629 8.64678 4.23825 10.018C4.79021 11.3893 5.77704 12.5415 7.0472 13.2976C4.47938 14.1357 2.27907 15.9057 0.85126 18.3751C0.798899 18.4605 0.764169 18.5555 0.749118 18.6545C0.734067 18.7535 0.739 18.8545 0.763626 18.9516C0.788252 19.0487 0.832073 19.1399 0.892502 19.2197C0.952931 19.2996 1.02874 19.3666 1.11547 19.4167C1.2022 19.4667 1.29808 19.499 1.39745 19.5114C1.49683 19.5238 1.5977 19.5163 1.69409 19.4891C1.79049 19.4619 1.88047 19.4157 1.95872 19.3532C2.03697 19.2907 2.1019 19.2131 2.1497 19.1251C3.91595 16.0726 7.03782 14.2501 10.5 14.2501C13.9622 14.2501 17.0841 16.0726 18.8503 19.1251C18.8981 19.2131 18.9631 19.2907 19.0413 19.3532C19.1196 19.4157 19.2095 19.4619 19.3059 19.4891C19.4023 19.5163 19.5032 19.5238 19.6026 19.5114C19.7019 19.499 19.7978 19.4667 19.8845 19.4167C19.9713 19.3666 20.0471 19.2996 20.1075 19.2197C20.1679 19.1399 20.2118 19.0487 20.2364 18.9516C20.261 18.8545 20.266 18.7535 20.2509 18.6545C20.2358 18.5555 20.2011 18.4605 20.1488 18.3751ZM5.25001 7.50011C5.25001 6.46176 5.55792 5.44672 6.13479 4.58337C6.71167 3.72001 7.53161 3.0471 8.49092 2.64974C9.45023 2.25238 10.5058 2.14841 11.5242 2.35099C12.5426 2.55356 13.4781 3.05357 14.2123 3.7878C14.9465 4.52202 15.4466 5.45748 15.6491 6.47589C15.8517 7.49429 15.7477 8.54989 15.3504 9.5092C14.953 10.4685 14.2801 11.2884 13.4168 11.8653C12.5534 12.4422 11.5384 12.7501 10.5 12.7501C9.10808 12.7486 7.77359 12.195 6.78934 11.2108C5.8051 10.2265 5.2515 8.89204 5.25001 7.50011Z" fill="#461C07"/>
</svg>
