<svg width="21" height="21" viewBox="0 0 21 21" fill="none" xmlns="http://www.w3.org/2000/svg">
<g clip-path="url(#clip0_127_392)">
<path d="M20.1489 18.8751C18.721 16.4067 16.5207 14.6367 13.9529 13.7976C15.2231 13.0415 16.2099 11.8893 16.7619 10.518C17.3138 9.14678 17.4004 7.63224 17.0083 6.20701C16.6162 4.78178 15.7671 3.52467 14.5913 2.62873C13.4156 1.73279 11.9783 1.24756 10.5001 1.24756C9.02194 1.24756 7.58463 1.73279 6.4089 2.62873C5.23318 3.52467 4.38406 4.78178 3.99195 6.20701C3.59983 7.63224 3.68641 9.14678 4.23837 10.518C4.79033 11.8893 5.77716 13.0415 7.04732 13.7976C4.4795 14.6357 2.27919 16.4057 0.851382 18.8751C0.799021 18.9605 0.764291 19.0555 0.74924 19.1545C0.734189 19.2535 0.739122 19.3545 0.763748 19.4516C0.788374 19.5487 0.832195 19.6399 0.892624 19.7197C0.953053 19.7996 1.02886 19.8666 1.11559 19.9167C1.20232 19.9667 1.2982 19.999 1.39757 20.0114C1.49695 20.0238 1.59782 20.0163 1.69421 19.9891C1.79061 19.9619 1.88059 19.9157 1.95884 19.8532C2.03709 19.7907 2.10202 19.7131 2.14982 19.6251C3.91607 16.5726 7.03794 14.7501 10.5001 14.7501C13.9623 14.7501 17.0842 16.5726 18.8504 19.6251C18.8982 19.7131 18.9632 19.7907 19.0414 19.8532C19.1197 19.9157 19.2096 19.9619 19.306 19.9891C19.4024 20.0163 19.5033 20.0238 19.6027 20.0114C19.702 19.999 19.7979 19.9667 19.8846 19.9167C19.9714 19.8666 20.0472 19.7996 20.1076 19.7197C20.168 19.6399 20.2119 19.5487 20.2365 19.4516C20.2611 19.3545 20.2661 19.2535 20.251 19.1545C20.2359 19.0555 20.2012 18.9605 20.1489 18.8751ZM5.25013 8.00011C5.25013 6.96176 5.55804 5.94672 6.13491 5.08337C6.71179 4.22001 7.53173 3.5471 8.49104 3.14974C9.45035 2.75238 10.5059 2.64841 11.5243 2.85099C12.5427 3.05356 13.4782 3.55357 14.2124 4.2878C14.9466 5.02202 15.4467 5.95748 15.6492 6.97589C15.8518 7.99429 15.7478 9.04989 15.3505 10.0092C14.9531 10.9685 14.2802 11.7884 13.4169 12.3653C12.5535 12.9422 11.5385 13.2501 10.5001 13.2501C9.1082 13.2486 7.77371 12.695 6.78946 11.7108C5.80522 10.7265 5.25162 9.39204 5.25013 8.00011Z" fill="#461C07"/>
<circle cx="11" cy="8" r="6" fill="#461C07"/>
<path d="M7.49991 14.5H13.4999L17.4999 16.5L19.5 20H1.74561L3.99991 16L7.49991 14.5Z" fill="#461C07"/>
</g>
<defs>
<clipPath id="clip0_127_392">
<rect width="21" height="20" fill="white" transform="translate(0 0.5)"/>
</clipPath>
</defs>
</svg>
