<svg width="25" height="25" viewBox="0 0 25 25" fill="none" xmlns="http://www.w3.org/2000/svg">
<g clip-path="url(#clip0_125_267)">
<path fill-rule="evenodd" clip-rule="evenodd" d="M7.2776 3.90879C6.78287 4.40863 6.3781 5.24018 6.3781 5.75668C6.3781 6.29438 5.17876 6.79573 3.56715 6.93053L0.756195 7.16531L0.539565 14.2471C0.400141 18.8176 0.631764 21.7045 1.19395 22.3884C2.45101 23.9182 21.549 23.9182 22.806 22.3884C23.3682 21.7045 23.5999 18.8176 23.4604 14.2471L23.2438 7.16531L20.5355 6.93659C18.5117 6.76544 17.6159 6.23909 16.9907 4.85394C16.2562 3.22493 15.6707 3 12.1657 3C9.97237 3 7.77233 3.40896 7.2776 3.90879ZM8.25206 6.78664C7.89826 7.91355 7.11794 8.3013 5.20349 8.3013H2.63016V14.7386V21.1759H12H21.3698V14.7386V8.3013H18.7965C16.8821 8.3013 16.1017 7.91355 15.7479 6.78664C15.3679 5.57643 14.6138 5.27198 12 5.27198C9.38619 5.27198 8.63211 5.57643 8.25206 6.78664ZM9.37644 7.54397C9.37644 7.9605 10.557 8.3013 12 8.3013C13.443 8.3013 14.6236 7.9605 14.6236 7.54397C14.6236 7.12744 13.443 6.78664 12 6.78664C10.557 6.78664 9.37644 7.12744 9.37644 7.54397ZM8.62686 11.3306C6.75364 13.2232 6.68993 16.7538 8.49868 18.4078C10.3179 20.0717 14.0861 20.002 15.6317 18.2761C18.3617 15.2286 16.038 9.81595 12 9.81595C10.9693 9.81595 9.4514 10.4976 8.62686 11.3306ZM17.966 10.624C17.2763 11.7517 18.0762 12.3644 19.5109 11.8085C20.1735 11.5518 20.5056 10.9981 20.2485 10.5786C19.6413 9.58573 18.5881 9.60618 17.966 10.624ZM10.1005 12.7143C8.90046 13.6957 8.57813 14.5265 8.94468 15.6936C9.86967 18.6366 14.1048 18.7191 15.0178 15.8117C15.9721 12.7741 12.6132 10.6581 10.1005 12.7143Z" fill="white"/>
</g>
<defs>
<clipPath id="clip0_125_267">
<rect width="24" height="24" fill="white" transform="translate(0.5 0.5)"/>
</clipPath>
</defs>
</svg>
